<?xml version="1.0" encoding="us-ascii" standalone="no"?><svg xmlns="http://www.w3.org/2000/svg" xmlns:xlink="http://www.w3.org/1999/xlink" contentStyleType="text/css" height="302px" preserveAspectRatio="none" style="width:1766px;height:302px;background:#FFFFFF;" version="1.1" viewBox="0 0 1766 302" width="1766px" zoomAndPan="magnify"><defs/><g><!--cluster convert_file_format/--><g id="cluster_convert_file_format/"><path d="M8.5,6 L165.5,6 A3.75,3.75 0 0 1 168,8.5 L175,28.2969 L1756.5,28.2969 A2.5,2.5 0 0 1 1759,30.7969 L1759,293.09 A2.5,2.5 0 0 1 1756.5,295.59 L8.5,295.59 A2.5,2.5 0 0 1 6,293.09 L6,8.5 A2.5,2.5 0 0 1 8.5,6 " fill="none" style="stroke:#000000;stroke-width:1.5;"/><line style="stroke:#000000;stroke-width:1.5;" x1="6" x2="175" y1="28.2969" y2="28.2969"/><text fill="#000000" font-family="sans-serif" font-size="14" font-weight="bold" lengthAdjust="spacing" textLength="156" x="10" y="20.9951">convert_file_format/</text></g><!--cluster docker--><g id="cluster_docker"><path d="M1406.5,92 L1462.5,92 A3.75,3.75 0 0 1 1465,94.5 L1472,114.2969 L1732.5,114.2969 A2.5,2.5 0 0 1 1735,116.7969 L1735,186.79 A2.5,2.5 0 0 1 1732.5,189.29 L1406.5,189.29 A2.5,2.5 0 0 1 1404,186.79 L1404,94.5 A2.5,2.5 0 0 1 1406.5,92 " fill="none" style="stroke:#000000;stroke-width:1.5;"/><line style="stroke:#000000;stroke-width:1.5;" x1="1404" x2="1472" y1="114.2969" y2="114.2969"/><text fill="#000000" font-family="sans-serif" font-size="14" font-weight="bold" lengthAdjust="spacing" textLength="55" x="1408" y="106.9951">docker</text></g><!--cluster images--><g id="cluster_images"><path d="M1148.5,92 L1205.5,92 A3.75,3.75 0 0 1 1208,94.5 L1215,114.2969 L1377.5,114.2969 A2.5,2.5 0 0 1 1380,116.7969 L1380,186.79 A2.5,2.5 0 0 1 1377.5,189.29 L1148.5,189.29 A2.5,2.5 0 0 1 1146,186.79 L1146,94.5 A2.5,2.5 0 0 1 1148.5,92 " fill="none" style="stroke:#000000;stroke-width:1.5;"/><line style="stroke:#000000;stroke-width:1.5;" x1="1146" x2="1215" y1="114.2969" y2="114.2969"/><text fill="#000000" font-family="sans-serif" font-size="14" font-weight="bold" lengthAdjust="spacing" textLength="56" x="1150" y="106.9951">images</text></g><!--cluster lib--><g id="cluster_lib"><path d="M821.5,92 L840.5,92 A3.75,3.75 0 0 1 843,94.5 L850,114.2969 L1119.5,114.2969 A2.5,2.5 0 0 1 1122,116.7969 L1122,186.79 A2.5,2.5 0 0 1 1119.5,189.29 L821.5,189.29 A2.5,2.5 0 0 1 819,186.79 L819,94.5 A2.5,2.5 0 0 1 821.5,92 " fill="none" style="stroke:#000000;stroke-width:1.5;"/><line style="stroke:#000000;stroke-width:1.5;" x1="819" x2="850" y1="114.2969" y2="114.2969"/><text fill="#000000" font-family="sans-serif" font-size="14" font-weight="bold" lengthAdjust="spacing" textLength="18" x="823" y="106.9951">lib</text></g><!--cluster sample_data--><g id="cluster_sample_data"><path d="M297.5,49 L395.5,49 A3.75,3.75 0 0 1 398,51.5 L405,71.2969 L792.5,71.2969 A2.5,2.5 0 0 1 795,73.7969 L795,210.79 A2.5,2.5 0 0 1 792.5,213.29 L297.5,213.29 A2.5,2.5 0 0 1 295,210.79 L295,51.5 A2.5,2.5 0 0 1 297.5,49 " fill="none" style="stroke:#000000;stroke-width:1.5;"/><line style="stroke:#000000;stroke-width:1.5;" x1="295" x2="405" y1="71.2969" y2="71.2969"/><text fill="#000000" font-family="sans-serif" font-size="14" font-weight="bold" lengthAdjust="spacing" textLength="97" x="299" y="63.9951">sample_data</text></g><!--cluster mp4--><g id="cluster_mp4"><path d="M575.5,92 L610.5,92 A3.75,3.75 0 0 1 613,94.5 L620,114.2969 L768.5,114.2969 A2.5,2.5 0 0 1 771,116.7969 L771,186.79 A2.5,2.5 0 0 1 768.5,189.29 L575.5,189.29 A2.5,2.5 0 0 1 573,186.79 L573,94.5 A2.5,2.5 0 0 1 575.5,92 " fill="none" style="stroke:#000000;stroke-width:1.5;"/><line style="stroke:#000000;stroke-width:1.5;" x1="573" x2="620" y1="114.2969" y2="114.2969"/><text fill="#000000" font-family="sans-serif" font-size="14" font-weight="bold" lengthAdjust="spacing" textLength="34" x="577" y="106.9951">mp4</text></g><!--cluster svg--><g id="cluster_svg"><path d="M321.5,92 L350.5,92 A3.75,3.75 0 0 1 353,94.5 L360,114.2969 L546.5,114.2969 A2.5,2.5 0 0 1 549,116.7969 L549,186.79 A2.5,2.5 0 0 1 546.5,189.29 L321.5,189.29 A2.5,2.5 0 0 1 319,186.79 L319,94.5 A2.5,2.5 0 0 1 321.5,92 " fill="none" style="stroke:#000000;stroke-width:1.5;"/><line style="stroke:#000000;stroke-width:1.5;" x1="319" x2="360" y1="114.2969" y2="114.2969"/><text fill="#000000" font-family="sans-serif" font-size="14" font-weight="bold" lengthAdjust="spacing" textLength="28" x="323" y="106.9951">svg</text></g><!--entity LICENSE--><g id="elem_LICENSE"><rect fill="#F1F1F1" height="46.2969" rx="2.5" ry="2.5" style="stroke:#181818;stroke-width:0.5;" width="97" x="21.5" y="127"/><rect fill="#F1F1F1" height="10" style="stroke:#181818;stroke-width:0.5;" width="15" x="98.5" y="132"/><rect fill="#F1F1F1" height="2" style="stroke:#181818;stroke-width:0.5;" width="4" x="96.5" y="134"/><rect fill="#F1F1F1" height="2" style="stroke:#181818;stroke-width:0.5;" width="4" x="96.5" y="138"/><text fill="#000000" font-family="sans-serif" font-size="14" lengthAdjust="spacing" textLength="57" x="36.5" y="159.9951">LICENSE</text></g><!--entity README.md--><g id="elem_README.md"><rect fill="#F1F1F1" height="46.2969" rx="2.5" ry="2.5" style="stroke:#181818;stroke-width:0.5;" width="126" x="153" y="127"/><rect fill="#F1F1F1" height="10" style="stroke:#181818;stroke-width:0.5;" width="15" x="259" y="132"/><rect fill="#F1F1F1" height="2" style="stroke:#181818;stroke-width:0.5;" width="4" x="257" y="134"/><rect fill="#F1F1F1" height="2" style="stroke:#181818;stroke-width:0.5;" width="4" x="257" y="138"/><text fill="#000000" font-family="sans-serif" font-size="14" lengthAdjust="spacing" textLength="86" x="168" y="159.9951">README.md</text></g><!--entity convert_file_format.py--><g id="elem_convert_file_format.py"><rect fill="#F1F1F1" height="46.2969" rx="2.5" ry="2.5" style="stroke:#181818;stroke-width:0.5;" width="189" x="22.5" y="233.29"/><rect fill="#F1F1F1" height="10" style="stroke:#181818;stroke-width:0.5;" width="15" x="191.5" y="238.29"/><rect fill="#F1F1F1" height="2" style="stroke:#181818;stroke-width:0.5;" width="4" x="189.5" y="240.29"/><rect fill="#F1F1F1" height="2" style="stroke:#181818;stroke-width:0.5;" width="4" x="189.5" y="244.29"/><text fill="#000000" font-family="sans-serif" font-size="14" lengthAdjust="spacing" textLength="149" x="37.5" y="266.2851">convert_file_format.py</text></g><!--entity docker-compose.yml--><g id="elem_docker-compose.yml"><rect fill="#F1F1F1" height="46.2969" rx="2.5" ry="2.5" style="stroke:#181818;stroke-width:0.5;" width="185" x="246.5" y="233.29"/><rect fill="#F1F1F1" height="10" style="stroke:#181818;stroke-width:0.5;" width="15" x="411.5" y="238.29"/><rect fill="#F1F1F1" height="2" style="stroke:#181818;stroke-width:0.5;" width="4" x="409.5" y="240.29"/><rect fill="#F1F1F1" height="2" style="stroke:#181818;stroke-width:0.5;" width="4" x="409.5" y="244.29"/><text fill="#000000" font-family="sans-serif" font-size="14" lengthAdjust="spacing" textLength="145" x="261.5" y="266.2851">docker-compose.yml</text></g><!--entity Dockerfile--><g id="elem_Dockerfile"><rect fill="#F1F1F1" height="46.2969" rx="2.5" ry="2.5" style="stroke:#181818;stroke-width:0.5;" width="109" x="1609.5" y="127"/><rect fill="#F1F1F1" height="10" style="stroke:#181818;stroke-width:0.5;" width="15" x="1698.5" y="132"/><rect fill="#F1F1F1" height="2" style="stroke:#181818;stroke-width:0.5;" width="4" x="1696.5" y="134"/><rect fill="#F1F1F1" height="2" style="stroke:#181818;stroke-width:0.5;" width="4" x="1696.5" y="138"/><text fill="#000000" font-family="sans-serif" font-size="14" lengthAdjust="spacing" textLength="69" x="1624.5" y="159.9951">Dockerfile</text></g><!--entity requirements.txt--><g id="elem_requirements.txt"><rect fill="#F1F1F1" height="46.2969" rx="2.5" ry="2.5" style="stroke:#181818;stroke-width:0.5;" width="154" x="1420" y="127"/><rect fill="#F1F1F1" height="10" style="stroke:#181818;stroke-width:0.5;" width="15" x="1554" y="132"/><rect fill="#F1F1F1" height="2" style="stroke:#181818;stroke-width:0.5;" width="4" x="1552" y="134"/><rect fill="#F1F1F1" height="2" style="stroke:#181818;stroke-width:0.5;" width="4" x="1552" y="138"/><text fill="#000000" font-family="sans-serif" font-size="14" lengthAdjust="spacing" textLength="114" x="1435" y="159.9951">requirements.txt</text></g><!--entity directory_structure.png--><g id="elem_directory_structure.png"><rect fill="#F1F1F1" height="46.2969" rx="2.5" ry="2.5" style="stroke:#181818;stroke-width:0.5;" width="201" x="1162.5" y="127"/><rect fill="#F1F1F1" height="10" style="stroke:#181818;stroke-width:0.5;" width="15" x="1343.5" y="132"/><rect fill="#F1F1F1" height="2" style="stroke:#181818;stroke-width:0.5;" width="4" x="1341.5" y="134"/><rect fill="#F1F1F1" height="2" style="stroke:#181818;stroke-width:0.5;" width="4" x="1341.5" y="138"/><text fill="#000000" font-family="sans-serif" font-size="14" lengthAdjust="spacing" textLength="161" x="1177.5" y="159.9951">directory_structure.png</text></g><!--entity mp42gif.py--><g id="elem_mp42gif.py"><rect fill="#F1F1F1" height="46.2969" rx="2.5" ry="2.5" style="stroke:#181818;stroke-width:0.5;" width="116" x="990" y="127"/><rect fill="#F1F1F1" height="10" style="stroke:#181818;stroke-width:0.5;" width="15" x="1086" y="132"/><rect fill="#F1F1F1" height="2" style="stroke:#181818;stroke-width:0.5;" width="4" x="1084" y="134"/><rect fill="#F1F1F1" height="2" style="stroke:#181818;stroke-width:0.5;" width="4" x="1084" y="138"/><text fill="#000000" font-family="sans-serif" font-size="14" lengthAdjust="spacing" textLength="76" x="1005" y="159.9951">mp42gif.py</text></g><!--entity svg2png.py--><g id="elem_svg2png.py"><rect fill="#F1F1F1" height="46.2969" rx="2.5" ry="2.5" style="stroke:#181818;stroke-width:0.5;" width="120" x="835" y="127"/><rect fill="#F1F1F1" height="10" style="stroke:#181818;stroke-width:0.5;" width="15" x="935" y="132"/><rect fill="#F1F1F1" height="2" style="stroke:#181818;stroke-width:0.5;" width="4" x="933" y="134"/><rect fill="#F1F1F1" height="2" style="stroke:#181818;stroke-width:0.5;" width="4" x="933" y="138"/><text fill="#000000" font-family="sans-serif" font-size="14" lengthAdjust="spacing" textLength="80" x="850" y="159.9951">svg2png.py</text></g><!--entity run_svg2png.mp4--><g id="elem_run_svg2png.mp4"><rect fill="#F1F1F1" height="46.2969" rx="2.5" ry="2.5" style="stroke:#181818;stroke-width:0.5;" width="165" x="589.5" y="127"/><rect fill="#F1F1F1" height="10" style="stroke:#181818;stroke-width:0.5;" width="15" x="734.5" y="132"/><rect fill="#F1F1F1" height="2" style="stroke:#181818;stroke-width:0.5;" width="4" x="732.5" y="134"/><rect fill="#F1F1F1" height="2" style="stroke:#181818;stroke-width:0.5;" width="4" x="732.5" y="138"/><text fill="#000000" font-family="sans-serif" font-size="14" lengthAdjust="spacing" textLength="125" x="604.5" y="159.9951">run_svg2png.mp4</text></g><!--entity directory_structure.svg--><g id="elem_directory_structure.svg"><rect fill="#F1F1F1" height="46.2969" rx="2.5" ry="2.5" style="stroke:#181818;stroke-width:0.5;" width="198" x="335" y="127"/><rect fill="#F1F1F1" height="10" style="stroke:#181818;stroke-width:0.5;" width="15" x="513" y="132"/><rect fill="#F1F1F1" height="2" style="stroke:#181818;stroke-width:0.5;" width="4" x="511" y="134"/><rect fill="#F1F1F1" height="2" style="stroke:#181818;stroke-width:0.5;" width="4" x="511" y="138"/><text fill="#000000" font-family="sans-serif" font-size="14" lengthAdjust="spacing" textLength="158" x="350" y="159.9951">directory_structure.svg</text></g><!--SRC=[TOv1QiCm44NtEaN8FYg4NY0aNXIQB9gbCKQLHaB4ifJHsCIKthrZ9IOKMhGPpRp_-3Ps1d2rrh4V0QcrleFMHWoANjQhBr6_l-shqxbgHFrHxGx7IWR3yn-uJ5CZx4Ddehu05i6XZ3F8EOJhu142z9GbtQWHtwA-mniTGuePv1IwfyW7vI0NaU6WfeXJcma7JGE2JBsR5GlT-S-2XlIwTTwMIdKUtPQvydcYMON4tOqYDKUMDIUB0OU-NOAy-vKStRzz-3QZ_7u0]--></g></svg>